<?xml version="1.0" encoding="utf-8"?>
<!-- Generator: Adobe Illustrator 17.0.0, SVG Export Plug-In . SVG Version: 6.00 Build 0)  -->
<!DOCTYPE svg PUBLIC "-//W3C//DTD SVG 1.1//EN" "http://www.w3.org/Graphics/SVG/1.1/DTD/svg11.dtd">
<svg version="1.1" id="Layer_1" xmlns="http://www.w3.org/2000/svg" xmlns:xlink="http://www.w3.org/1999/xlink" x="0px" y="0px"
	 width="32px" height="32px" viewBox="0 0 32 32" enable-background="new 0 0 32 32" xml:space="preserve">
<g>
	<path fill="#FFFFFF" d="M29.633,0H2.36C1.058,0,0,1.033,0,2.307v27.384C0,30.966,1.058,32,2.36,32h27.272
		C30.937,32,32,30.966,32,29.691V2.307C32,1.033,30.937,0,29.633,0z M9.492,27.268H4.741V11.996h4.751V27.268z M7.118,9.91
		c-1.524,0-2.754-1.233-2.754-2.753c0-1.519,1.229-2.752,2.754-2.752c1.518,0,2.751,1.233,2.751,2.752
		C9.869,8.677,8.637,9.91,7.118,9.91z M27.269,27.268h-4.746v-7.426c0-1.771-0.03-4.049-2.466-4.049c-2.47,0-2.846,1.93-2.846,3.922
		v7.553H12.47V11.996h4.55v2.088h0.065c0.633-1.201,2.181-2.467,4.491-2.467c4.806,0,5.694,3.162,5.694,7.275V27.268z"/>
</g>
</svg>
