<?xml version="1.0" encoding="utf-8"?>
<!-- Generator: Adobe Illustrator 17.0.0, SVG Export Plug-In . SVG Version: 6.00 Build 0)  -->
<!DOCTYPE svg PUBLIC "-//W3C//DTD SVG 1.1//EN" "http://www.w3.org/Graphics/SVG/1.1/DTD/svg11.dtd">
<svg version="1.1" id="facebook" xmlns="http://www.w3.org/2000/svg" xmlns:xlink="http://www.w3.org/1999/xlink" x="0px" y="0px"
	 width="32px" height="32px" viewBox="0 0 32 32" enable-background="new 0 0 32 32" xml:space="preserve">
<path id="logo-facebook" fill="#FFFFFF" d="M30.234,0H1.766C0.791,0,0,0.791,0,1.766v28.468C0,31.209,0.791,32,1.766,32h15.326
	V19.608h-4.17v-4.829h4.17v-3.562c0-4.133,2.524-6.384,6.211-6.384c1.766,0,3.284,0.131,3.726,0.19v4.319l-2.557,0.001
	c-2.005,0-2.394,0.953-2.394,2.351v3.083h4.782l-0.623,4.829h-4.16V32h8.154C31.209,32,32,31.209,32,30.234V1.766
	C32,0.791,31.209,0,30.234,0z"/>
</svg>
