<?xml version="1.0" standalone="no"?>
<!DOCTYPE svg PUBLIC "-//W3C//DTD SVG 1.1//EN" "http://www.w3.org/Graphics/SVG/1.1/DTD/svg11.dtd">
<svg width="100%" height="100%" viewBox="0 0 24 21" version="1.1" xmlns="http://www.w3.org/2000/svg" xmlns:xlink="http://www.w3.org/1999/xlink" xml:space="preserve" style="fill-rule:evenodd;clip-rule:evenodd;stroke-linejoin:round;stroke-miterlimit:1.41421;">
    <g id="Line_Icons" transform="matrix(1.2,0,0,1.2,-2.4,-3.6)">
        <path d="M20,3L20,4.197L4,7.754L4,7L2,7L2,15L4,15L4,14.246L5,14.469L5,18C5,18.459 5.313,18.858 5.757,18.971L9.757,19.971C9.838,19.99 9.919,20 10,20C10.31,20 10.607,19.855 10.799,19.6L13.27,16.307L20,17.801L20,19L22,19L22,3L20,3ZM9.598,17.869L7,17.219L7,14.912L11.127,15.83L9.598,17.869ZM4,12.197L4,9.803L20,6.246L20,15.754L4,12.197Z" style="fill:rgb(74,185,173);fill-rule:nonzero;"/>
    </g>
</svg>
