<?xml version="1.0" encoding="utf-8"?>
<!-- Generator: Adobe Illustrator 17.0.0, SVG Export Plug-In . SVG Version: 6.00 Build 0)  -->
<!DOCTYPE svg PUBLIC "-//W3C//DTD SVG 1.1//EN" "http://www.w3.org/Graphics/SVG/1.1/DTD/svg11.dtd">
<svg version="1.1" id="Layer_1" xmlns="http://www.w3.org/2000/svg" xmlns:xlink="http://www.w3.org/1999/xlink" x="0px" y="0px"
	 width="16px" height="24px" viewBox="0 0 16 24" enable-background="new 0 0 16 24" xml:space="preserve">
<g>
	<g>
		<g>
			<polygon fill="#767677" points="10.445,14.832 7,12.535 7,8 9,8 9,11.465 11.555,13.168 			"/>
		</g>
	</g>
	<path fill="#767677" d="M13.537,6.239L11.754,0H4.246L2.463,6.239C0.948,7.696,0,9.737,0,12s0.948,4.304,2.463,5.761L4.246,24
		h7.509l1.783-6.239C15.052,16.304,16,14.263,16,12S15.052,7.696,13.537,6.239z M5.754,2h4.491l0.738,2.583C10.061,4.21,9.055,4,8,4
		S5.939,4.21,5.016,4.583L5.754,2z M10.246,22H5.754l-0.738-2.583C5.939,19.79,6.945,20,8,20s2.061-0.21,2.984-0.583L10.246,22z
		 M7.999,17.998c-3.313,0-6-2.686-6-6c0-3.313,2.687-6,6-6s6,2.687,6,6C13.999,15.311,11.312,17.998,7.999,17.998z"/>
</g>
</svg>
