<?xml version="1.0" encoding="utf-8"?>
<!-- Generator: Adobe Illustrator 17.0.0, SVG Export Plug-In . SVG Version: 6.00 Build 0)  -->
<!DOCTYPE svg PUBLIC "-//W3C//DTD SVG 1.1//EN" "http://www.w3.org/Graphics/SVG/1.1/DTD/svg11.dtd">
<svg version="1.1" id="ppp-logo" xmlns="http://www.w3.org/2000/svg" xmlns:xlink="http://www.w3.org/1999/xlink" x="0px" y="0px"
	 width="232.149px" height="48px" viewBox="11.377 10.387 232.149 48" enable-background="new 11.377 10.387 232.149 48"
	 xml:space="preserve">
<g id="logo">
	<path fill="#FFFFFF" d="M41.321,34.389c0,8.508-4.432,16.002-11.109,20.291l3.706,3.706c7.579-5.291,12.549-14.074,12.549-23.998
		c0-9.927-4.972-18.712-12.556-24.002l-3.706,3.706C36.885,18.382,41.321,25.877,41.321,34.389z"/>
	<path fill="#FFFFFF" d="M33.108,34.389c0,6.279-3.662,11.673-8.963,14.225l3.84,3.84c6.146-3.677,10.27-10.397,10.27-18.064
		c0-7.67-4.127-14.394-10.277-18.069l-3.791,3.791C29.465,22.697,33.108,28.126,33.108,34.389z"/>
	<path fill="#FFFFFF" d="M12.116,54.797c0.113,0.028,0.225,0.057,0.339,0.083c0.192,0.045,0.385,0.086,0.579,0.125
		c0.092,0.018,0.185,0.036,0.278,0.054c0.159,0.03,0.318,0.058,0.479,0.084c0.07,0.011,0.139,0.024,0.21,0.035
		c0.219,0.034,0.441,0.063,0.663,0.09c0.07,0.009,0.14,0.017,0.211,0.025c0.211,0.024,0.422,0.045,0.634,0.061
		c0.027,0.002,0.054,0.005,0.082,0.007c0.238,0.018,0.476,0.032,0.716,0.041c0.061,0.003,0.12,0.004,0.181,0.007
		c0.243,0.009,0.487,0.014,0.732,0.014c0.061,0,0.12-0.002,0.181-0.003v-5.234v-3.262c6.88-0.097,12.449-5.634,12.449-12.537
		c0-6.964-5.665-12.63-12.63-12.63c-2.107,0-4.094,0.522-5.843,1.439v6.523v9.336v6.523v3.584v5.428
		c0.146,0.042,0.291,0.086,0.439,0.125C11.916,54.746,12.016,54.771,12.116,54.797z M17.4,26.911
		c4.043,0.096,7.303,3.413,7.303,7.478c0,4.066-3.26,7.382-7.303,7.478V26.911z"/>
</g>
<g>
	<path fill="#FFFFFF" d="M58.787,26.387h5.076c3.531,0,5.849,1.567,5.849,4.877v0.088c0,3.332-2.406,4.811-5.782,4.811h-2.207v6.003
		h-2.935V26.387z M63.863,34.045c1.942,0,2.979-0.949,2.979-2.693v-0.088c0-1.876-1.103-2.604-2.979-2.604h-2.14v5.385H63.863z"/>
	<path fill="#FFFFFF" d="M70.828,36.517V36.34c0-3.575,2.538-5.959,5.936-5.959c3.377,0,5.915,2.361,5.915,5.892v0.177
		c0,3.597-2.538,5.936-5.936,5.936C73.344,42.387,70.828,40.025,70.828,36.517z M79.943,36.472v-0.154
		c0-2.383-1.192-3.84-3.178-3.84s-3.2,1.435-3.2,3.818v0.176c0,2.362,1.169,3.84,3.2,3.84
		C78.751,40.312,79.943,38.834,79.943,36.472z"/>
	<path fill="#FFFFFF" d="M84.039,38.569h2.516c0.132,1.169,0.728,1.853,2.295,1.853c1.434,0,2.074-0.508,2.074-1.478
		c0-0.949-0.772-1.302-2.471-1.589c-3.046-0.485-4.171-1.346-4.171-3.51c0-2.317,2.163-3.464,4.325-3.464
		c2.362,0,4.237,0.883,4.524,3.487h-2.472c-0.221-1.059-0.817-1.545-2.053-1.545c-1.147,0-1.831,0.552-1.831,1.368
		c0,0.839,0.552,1.169,2.384,1.478c2.714,0.419,4.325,1.082,4.325,3.531c0,2.339-1.655,3.686-4.613,3.686
		C85.892,42.387,84.149,41.018,84.039,38.569z"/>
	<path fill="#FFFFFF" d="M96.062,38.944v-6.312h-1.545v-2.008h1.545v-2.538h2.67v2.538h2.538v2.008h-2.538v6.069
		c0,1.015,0.485,1.479,1.324,1.479c0.529,0,0.927-0.067,1.302-0.221v2.119c-0.419,0.154-0.993,0.287-1.81,0.287
		C97.253,42.365,96.062,41.129,96.062,38.944z"/>
	<path fill="#FFFFFF" d="M109.238,26.387h5.076c3.531,0,5.849,1.567,5.849,4.877v0.088c0,3.332-2.406,4.811-5.782,4.811h-2.207
		v6.003h-2.935V26.387z M114.314,34.045c1.942,0,2.979-0.949,2.979-2.693v-0.088c0-1.876-1.103-2.604-2.979-2.604h-2.14v5.385
		H114.314z"/>
	<path fill="#FFFFFF" d="M122.098,30.624h2.671v2.163c0.728-1.456,1.81-2.317,3.751-2.339v2.494
		c-2.339,0.022-3.751,0.773-3.751,3.222v6.003h-2.671V30.624z"/>
	<path fill="#FFFFFF" d="M129.578,36.517V36.34c0-3.575,2.538-5.959,5.936-5.959c3.377,0,5.914,2.361,5.914,5.892v0.177
		c0,3.597-2.538,5.936-5.936,5.936C132.094,42.387,129.578,40.025,129.578,36.517z M138.693,36.472v-0.154
		c0-2.383-1.192-3.84-3.178-3.84c-1.986,0-3.2,1.435-3.2,3.818v0.176c0,2.362,1.169,3.84,3.2,3.84
		C137.501,40.312,138.693,38.834,138.693,36.472z"/>
	<path fill="#FFFFFF" d="M143.599,30.624h2.671v1.766c0.551-1.082,1.81-2.008,3.509-2.008c1.501,0,2.692,0.64,3.266,2.074
		c0.883-1.434,2.472-2.074,3.907-2.074c2.119,0,3.84,1.302,3.84,4.48v7.305h-2.671v-7.128c0-1.7-0.728-2.428-2.053-2.428
		c-1.323,0-2.537,0.883-2.537,2.648v6.908h-2.671v-7.128c0-1.7-0.751-2.428-2.053-2.428c-1.323,0-2.537,0.883-2.537,2.648v6.908
		h-2.671V30.624z"/>
	<path fill="#FFFFFF" d="M162.93,36.517V36.34c0-3.575,2.538-5.959,5.937-5.959c3.376,0,5.914,2.361,5.914,5.892v0.177
		c0,3.597-2.538,5.936-5.936,5.936C165.446,42.387,162.93,40.025,162.93,36.517z M172.045,36.472v-0.154
		c0-2.383-1.192-3.84-3.178-3.84c-1.987,0-3.201,1.435-3.201,3.818v0.176c0,2.362,1.169,3.84,3.201,3.84
		C170.853,40.312,172.045,38.834,172.045,36.472z"/>
	<path fill="#FFFFFF" d="M177.211,38.944v-6.312h-1.545v-2.008h1.545v-2.538h2.67v2.538h2.538v2.008h-2.538v6.069
		c0,1.015,0.486,1.479,1.324,1.479c0.53,0,0.927-0.067,1.302-0.221v2.119c-0.419,0.154-0.993,0.287-1.81,0.287
		C178.403,42.365,177.211,41.129,177.211,38.944z"/>
	<path fill="#FFFFFF" d="M183.657,36.517V36.34c0-3.575,2.45-5.959,5.738-5.959c2.869,0,5.451,1.699,5.451,5.826v0.772h-8.452
		c0.088,2.185,1.192,3.421,3.178,3.421c1.611,0,2.45-0.64,2.648-1.765h2.582c-0.375,2.428-2.339,3.752-5.296,3.752
		C186.107,42.387,183.657,40.158,183.657,36.517z M192.197,35.192c-0.132-1.986-1.147-2.869-2.803-2.869
		c-1.611,0-2.692,1.082-2.957,2.869H192.197z"/>
	<path fill="#FFFFFF" d="M197.098,30.624h2.671v2.163c0.728-1.456,1.81-2.317,3.752-2.339v2.494
		c-2.339,0.022-3.752,0.773-3.752,3.222v6.003h-2.671V30.624z"/>
	<path fill="#FFFFFF" d="M211.335,26.387h5.076c3.531,0,5.848,1.567,5.848,4.877v0.088c0,3.332-2.405,4.811-5.782,4.811h-2.207
		v6.003h-2.935V26.387z M216.411,34.045c1.941,0,2.979-0.949,2.979-2.693v-0.088c0-1.876-1.103-2.604-2.979-2.604h-2.141v5.385
		H216.411z"/>
	<path fill="#FFFFFF" d="M224.194,30.624h2.671v2.163c0.728-1.456,1.81-2.317,3.752-2.339v2.494
		c-2.339,0.022-3.752,0.773-3.752,3.222v6.003h-2.671V30.624z"/>
	<path fill="#FFFFFF" d="M231.675,36.517V36.34c0-3.575,2.538-5.959,5.936-5.959c3.377,0,5.914,2.361,5.914,5.892v0.177
		c0,3.597-2.537,5.936-5.936,5.936C234.191,42.387,231.675,40.025,231.675,36.517z M240.79,36.472v-0.154
		c0-2.383-1.192-3.84-3.178-3.84s-3.2,1.435-3.2,3.818v0.176c0,2.362,1.169,3.84,3.2,3.84
		C239.597,40.312,240.79,38.834,240.79,36.472z"/>
</g>
</svg>
