<?xml version="1.0" encoding="utf-8"?>
<!-- Generator: Adobe Illustrator 17.0.0, SVG Export Plug-In . SVG Version: 6.00 Build 0)  -->
<!DOCTYPE svg PUBLIC "-//W3C//DTD SVG 1.1//EN" "http://www.w3.org/Graphics/SVG/1.1/DTD/svg11.dtd">
<svg version="1.1" id="ppp-logo" xmlns="http://www.w3.org/2000/svg" xmlns:xlink="http://www.w3.org/1999/xlink" x="0px" y="0px"
	 width="304.102px" height="54.717px" viewBox="0 0 304.102 54.717" enable-background="new 0 0 304.102 54.717"
	 xml:space="preserve">


<g id="logo">
	<path class="piece p3" fill="#FFFFFF" d="M34.134,27.361c0,9.699-5.052,18.241-12.664,23.131l4.225,4.225C34.335,48.686,40,38.673,40,27.361
		C40,16.045,34.332,6.03,25.687,0l-4.225,4.225C29.078,9.114,34.134,17.658,34.134,27.361z"/>
	<path class="piece p2" fill="#FFFFFF" d="M24.772,27.361c0,7.158-4.175,13.306-10.217,16.216l4.377,4.377c7.006-4.191,11.707-11.852,11.707-20.592
		c0-8.743-4.705-16.408-11.715-20.597l-4.322,4.322C20.619,14.033,24.772,20.221,24.772,27.361z"/>
	<path class="p1" fill="#FFFFFF" d="M0.843,50.624c0.129,0.032,0.257,0.065,0.387,0.095c0.219,0.051,0.439,0.098,0.66,0.143
		c0.105,0.021,0.211,0.041,0.317,0.061c0.181,0.034,0.363,0.066,0.546,0.096c0.08,0.013,0.159,0.027,0.239,0.04
		c0.25,0.039,0.503,0.072,0.756,0.103c0.08,0.01,0.16,0.019,0.241,0.028c0.24,0.027,0.481,0.051,0.723,0.07
		c0.031,0.002,0.062,0.006,0.093,0.008c0.271,0.021,0.543,0.036,0.816,0.047c0.069,0.003,0.137,0.005,0.206,0.008
		c0.277,0.01,0.555,0.016,0.834,0.016c0.069,0,0.137-0.002,0.206-0.003V45.37v-3.718c7.843-0.111,14.191-6.422,14.191-14.291
		c0-7.938-6.458-14.397-14.397-14.397c-2.402,0-4.667,0.595-6.661,1.64v7.436v10.642v7.436v4.086v6.188
		c0.166,0.048,0.332,0.098,0.5,0.143C0.614,50.566,0.728,50.595,0.843,50.624z M6.866,18.836c4.609,0.11,8.325,3.891,8.325,8.525
		c0,4.635-3.716,8.415-8.325,8.525V18.836z"/>
</g>
<g id="text">
	<path fill="#FFFFFF" d="M50.205,16.797h7.902c5.694,0,8.338,2.527,8.338,6.943v0.116c0,4.358-2.935,6.711-8.076,6.711h-2.237v7.002
		h-5.927V16.797z M57.846,26.501c1.918,0,2.935-0.9,2.935-2.614V23.77c0-1.772-1.046-2.499-2.905-2.499h-1.743v5.229H57.846z"/>
	<path fill="#FFFFFF" d="M67.369,30.162v-0.232c0-4.881,3.631-7.961,8.338-7.961c4.678,0,8.28,2.993,8.28,7.815v0.232
		c0,4.939-3.632,7.902-8.31,7.902S67.369,35.071,67.369,30.162z M78.699,30.075v-0.232c0-2.557-1.017-3.98-2.992-3.98
		c-1.946,0-3.021,1.365-3.021,3.922v0.232c0,2.615,1.017,4.038,3.021,4.038C77.653,34.054,78.699,32.602,78.699,30.075z"/>
	<path fill="#FFFFFF" d="M85.211,32.747h4.793c0.175,1.104,0.668,1.715,2.15,1.715c1.278,0,1.859-0.494,1.859-1.25
		c0-0.726-0.727-1.074-2.818-1.365c-4.067-0.522-5.781-1.714-5.781-4.881c0-3.37,2.992-4.997,6.508-4.997
		c3.748,0,6.362,1.278,6.711,4.91h-4.707c-0.203-1.017-0.755-1.511-1.946-1.511c-1.133,0-1.714,0.494-1.714,1.191
		c0,0.726,0.697,1.017,2.557,1.249c4.213,0.522,6.246,1.627,6.246,4.881c0,3.603-2.673,5.229-6.885,5.229
		C87.855,37.919,85.326,36.118,85.211,32.747z"/>
	<path fill="#FFFFFF" d="M101.711,32.689v-6.77h-1.83v-3.544h1.83v-3.167h5.2v3.167h2.992v3.544h-2.992v6.275
		c0,1.104,0.552,1.599,1.54,1.599c0.581,0,1.017-0.088,1.481-0.262v3.951c-0.668,0.174-1.656,0.436-2.876,0.436
		C103.628,37.919,101.711,36.262,101.711,32.689z"/>
	<path fill="#FFFFFF" d="M118.501,16.797h7.902c5.694,0,8.338,2.527,8.338,6.943v0.116c0,4.358-2.935,6.711-8.077,6.711h-2.236
		v7.002h-5.927V16.797z M126.142,26.501c1.917,0,2.935-0.9,2.935-2.614V23.77c0-1.772-1.046-2.499-2.905-2.499h-1.743v5.229H126.142
		z"/>
	<path fill="#FFFFFF" d="M136.522,22.376h5.2v3.021c0.959-2.267,2.557-3.254,4.91-3.225v4.852c-3.167-0.087-4.91,0.9-4.91,3.341
		v7.205h-5.2V22.376z"/>
	<path fill="#FFFFFF" d="M147.79,30.162v-0.232c0-4.881,3.632-7.961,8.338-7.961c4.678,0,8.28,2.993,8.28,7.815v0.232
		c0,4.939-3.632,7.902-8.31,7.902C151.422,37.919,147.79,35.071,147.79,30.162z M159.12,30.075v-0.232
		c0-2.557-1.017-3.98-2.992-3.98c-1.946,0-3.021,1.365-3.021,3.922v0.232c0,2.615,1.017,4.038,3.021,4.038
		C158.074,34.054,159.12,32.602,159.12,30.075z"/>
	<path fill="#FFFFFF" d="M166.555,22.376h5.2V24.7c0.813-1.453,2.411-2.731,4.765-2.731c2.005,0,3.399,0.872,4.125,2.528
		c1.308-1.772,3.109-2.528,5.026-2.528c2.876,0,4.968,1.859,4.968,5.665v9.937h-5.2v-9.064c0-1.54-0.755-2.295-1.946-2.295
		c-1.395,0-2.324,0.9-2.324,2.557v8.803h-5.143v-9.064c0-1.54-0.755-2.295-1.946-2.295c-1.395,0-2.324,0.9-2.324,2.557v8.803h-5.2
		V22.376z"/>
	<path fill="#FFFFFF" d="M192.707,30.162v-0.232c0-4.881,3.631-7.961,8.338-7.961c4.678,0,8.28,2.993,8.28,7.815v0.232
		c0,4.939-3.632,7.902-8.31,7.902S192.707,35.071,192.707,30.162z M204.037,30.075v-0.232c0-2.557-1.017-3.98-2.992-3.98
		c-1.946,0-3.021,1.365-3.021,3.922v0.232c0,2.615,1.017,4.038,3.021,4.038C202.991,34.054,204.037,32.602,204.037,30.075z"/>
	<path fill="#FFFFFF" d="M211.935,32.689v-6.77h-1.831v-3.544h1.831v-3.167h5.2v3.167h2.992v3.544h-2.992v6.275
		c0,1.104,0.552,1.599,1.54,1.599c0.581,0,1.017-0.088,1.481-0.262v3.951c-0.668,0.174-1.656,0.436-2.876,0.436
		C213.852,37.919,211.935,36.262,211.935,32.689z"/>
	<path fill="#FFFFFF" d="M221.355,30.162v-0.232c0-4.881,3.632-7.961,8.222-7.961c4.154,0,7.729,2.383,7.729,7.845v1.365h-10.691
		c0.145,2.005,1.307,3.167,3.166,3.167c1.715,0,2.44-0.784,2.645-1.802h4.881c-0.465,3.429-3.109,5.375-7.699,5.375
		C224.841,37.919,221.355,35.129,221.355,30.162z M232.249,28.244c-0.087-1.83-0.987-2.847-2.673-2.847
		c-1.568,0-2.644,1.017-2.905,2.847H232.249z"/>
	<path fill="#FFFFFF" d="M239.574,22.376h5.2v3.021c0.959-2.267,2.557-3.254,4.91-3.225v4.852c-3.167-0.087-4.91,0.9-4.91,3.341
		v7.205h-5.2V22.376z"/>
	<path fill="#FFFFFF" d="M258.194,16.797h7.902c5.694,0,8.338,2.527,8.338,6.943v0.116c0,4.358-2.935,6.711-8.077,6.711h-2.236
		v7.002h-5.927V16.797z M265.835,26.501c1.917,0,2.935-0.9,2.935-2.614V23.77c0-1.772-1.046-2.499-2.905-2.499h-1.743v5.229H265.835
		z"/>
	<path fill="#FFFFFF" d="M276.216,22.376h5.2v3.021c0.959-2.267,2.557-3.254,4.91-3.225v4.852c-3.167-0.087-4.91,0.9-4.91,3.341
		v7.205h-5.2V22.376z"/>
	<path fill="#FFFFFF" d="M287.483,30.162v-0.232c0-4.881,3.632-7.961,8.338-7.961c4.678,0,8.28,2.993,8.28,7.815v0.232
		c0,4.939-3.632,7.902-8.31,7.902C291.115,37.919,287.483,35.071,287.483,30.162z M298.814,30.075v-0.232
		c0-2.557-1.017-3.98-2.992-3.98c-1.946,0-3.021,1.365-3.021,3.922v0.232c0,2.615,1.017,4.038,3.021,4.038
		C297.768,34.054,298.814,32.602,298.814,30.075z"/>
</g>

</svg>
