<svg xmlns:sketch="http://www.bohemiancoding.com/sketch/ns" xmlns:dc="http://purl.org/dc/elements/1.1/" xmlns:cc="http://creativecommons.org/ns#" xmlns:rdf="http://www.w3.org/1999/02/22-rdf-syntax-ns#" xmlns:svg="http://www.w3.org/2000/svg" xmlns="http://www.w3.org/2000/svg" xmlns:sodipodi="http://sodipodi.sourceforge.net/DTD/sodipodi-0.dtd" xmlns:inkscape="http://www.inkscape.org/namespaces/inkscape"><symbol viewBox="0 0 24 24" id="icon-calendar"><title>calendar</title> <g id="calendar-Frame_-_24px"> <rect style="fill:none;" width="24" height="24"/> </g> <g id="calendar-Line_Icons"> <g> <path style="fill:#4ab9ad;" d="M21,3h-3V1h-2v6h2V5h3v15H3V5h2V3H3C1.896,3,1,3.895,1,5v15c0,1.104,0.896,2,2,2h18
			c1.104,0,2-0.896,2-2V5C23,3.895,22.104,3,21,3z"/> <polygon style="fill:#4ab9ad;" points="8,5 15,5 15,3 8,3 8,1 6,1 6,7 8,7 		"/> <rect x="5" y="9" style="fill:#4ab9ad;" width="4" height="4"/> <rect x="10" y="9" style="fill:#4ab9ad;" width="4" height="4"/> <rect x="15" y="9" style="fill:#4ab9ad;" width="4" height="4"/> <rect x="5" y="14" style="fill:#4ab9ad;" width="4" height="4"/> <rect x="10" y="14" style="fill:#4ab9ad;" width="4" height="4"/> </g> </g> </symbol><symbol viewBox="0 0 32 32" id="icon-logo-facebook"><title>logo-facebook</title> <path id="logo-facebook-logo-facebook" fill="#FFFFFF" d="M30.234,0H1.766C0.791,0,0,0.791,0,1.766v28.468C0,31.209,0.791,32,1.766,32h15.326
	V19.608h-4.17v-4.829h4.17v-3.562c0-4.133,2.524-6.384,6.211-6.384c1.766,0,3.284,0.131,3.726,0.19v4.319l-2.557,0.001
	c-2.005,0-2.394,0.953-2.394,2.351v3.083h4.782l-0.623,4.829h-4.16V32h8.154C31.209,32,32,31.209,32,30.234V1.766
	C32,0.791,31.209,0,30.234,0z"/> </symbol><symbol viewBox="0 0 32 32" id="icon-logo-linkedin"><title>logo-linkedin</title> <g> <path fill="#FFFFFF" d="M29.633,0H2.36C1.058,0,0,1.033,0,2.307v27.384C0,30.966,1.058,32,2.36,32h27.272
		C30.937,32,32,30.966,32,29.691V2.307C32,1.033,30.937,0,29.633,0z M9.492,27.268H4.741V11.996h4.751V27.268z M7.118,9.91
		c-1.524,0-2.754-1.233-2.754-2.753c0-1.519,1.229-2.752,2.754-2.752c1.518,0,2.751,1.233,2.751,2.752
		C9.869,8.677,8.637,9.91,7.118,9.91z M27.269,27.268h-4.746v-7.426c0-1.771-0.03-4.049-2.466-4.049c-2.47,0-2.846,1.93-2.846,3.922
		v7.553H12.47V11.996h4.55v2.088h0.065c0.633-1.201,2.181-2.467,4.491-2.467c4.806,0,5.694,3.162,5.694,7.275V27.268z"/> </g> </symbol><symbol viewBox="0 0 32 32" id="icon-logo-twitter"><title>logo-twitter</title> <path fill="#FFFFFF" d="M32,6.076c-1.177,0.522-2.443,0.875-3.771,1.034c1.356-0.812,2.397-2.099,2.887-3.632
	c-1.268,0.752-2.673,1.299-4.169,1.593c-1.198-1.276-2.904-2.073-4.792-2.073c-3.626,0-6.565,2.939-6.565,6.565
	c0,0.515,0.058,1.016,0.17,1.496C10.303,10.785,5.466,8.171,2.228,4.199c-0.565,0.97-0.889,2.097-0.889,3.301
	c0,2.278,1.159,4.287,2.921,5.465c-1.076-0.034-2.088-0.329-2.974-0.821c0,0.027-0.001,0.055-0.001,0.083
	c0,3.181,2.263,5.834,5.266,6.438c-0.551,0.15-1.131,0.23-1.73,0.23c-0.423,0-0.834-0.041-1.235-0.118
	c0.835,2.608,3.26,4.506,6.133,4.559c-2.247,1.761-5.078,2.81-8.154,2.81c-0.53,0-1.053-0.031-1.566-0.092
	c2.905,1.863,6.356,2.95,10.064,2.95c12.076,0,18.679-10.004,18.679-18.679c0-0.285-0.006-0.568-0.019-0.849
	C30.007,8.548,31.12,7.392,32,6.076z"/> </symbol><symbol viewBox="0 0 24 24" id="icon-money-stack"><title>money-stack</title> <g id="money-stack-Frame_-_24px"> <rect style="fill:none;" width="24" height="24"/> </g> <g id="money-stack-Line_Icons"> <g> <path style="fill:#4ab9ad;" d="M23,5h-5c0-0.551-0.447-1-1-1H7C6.448,4,6,4.448,6,5H1C0.448,5,0,5.448,0,6v12c0,0.553,0.448,1,1,1
			h5c0,0.553,0.448,1,1,1h10c0.553,0,1-0.447,1-1h5c0.553,0,1-0.447,1-1V6C24,5.448,23.553,5,23,5z M2,7h4v1H2V7z M2,10h4v1H2V10z
			 M2,13h4v1H2V13z M2,17v-1h4v1H2z M16,18H8V6h8V18z M22,17h-4v-1h4V17z M22,14h-4v-1h4V14z M22,11h-4v-1h4V11z M22,8h-4V7h4V8z"/> <path style="fill:#4ab9ad;" d="M11,17h2v-1.051c1.14-0.232,2-1.242,2-2.449c0-1.378-1.121-2.5-2.5-2.5h-1
			c-0.275,0-0.5-0.224-0.5-0.5c0-0.276,0.225-0.5,0.5-0.5H15V8h-2V7h-2V8.05C9.86,8.283,9,9.292,9,10.5c0,1.378,1.122,2.5,2.5,2.5h1
			c0.276,0,0.5,0.224,0.5,0.5c0,0.276-0.224,0.5-0.5,0.5H9v2h2V17z"/> </g> </g> </symbol><symbol viewBox="0 0 24 21" id="icon-share"><title>share</title> <g id="share-Line_Icons" transform="matrix(1.2,0,0,1.2,-2.4,-3.6)"> <path d="M20,3L20,4.197L4,7.754L4,7L2,7L2,15L4,15L4,14.246L5,14.469L5,18C5,18.459 5.313,18.858 5.757,18.971L9.757,19.971C9.838,19.99 9.919,20 10,20C10.31,20 10.607,19.855 10.799,19.6L13.27,16.307L20,17.801L20,19L22,19L22,3L20,3ZM9.598,17.869L7,17.219L7,14.912L11.127,15.83L9.598,17.869ZM4,12.197L4,9.803L20,6.246L20,15.754L4,12.197Z" style="fill:rgb(74,185,173);fill-rule:nonzero;"/> </g> </symbol><symbol viewBox="0 0 24 24" id="icon-sharing"><title>sharing</title> <g> <path fill="#4ab9ad" d="M13.351,13.466C13.748,13.1,14,12.581,14,12c0-1.104-0.896-2-2-2c-1.106,0-2,0.896-2,2
		c0,0.581,0.252,1.101,0.649,1.466l-4.543,9.087c-0.155,0.31-0.138,0.678,0.044,0.974C6.332,23.82,6.653,24,7,24h10
		c0.347,0,0.669-0.18,0.851-0.474c0.182-0.295,0.199-0.664,0.044-0.974L13.351,13.466z M13.382,18h-2.764L12,15.236L13.382,18z
		 M8.618,22l1-2h4.764l1,2H8.618z"/> <path fill="#4ab9ad" d="M20.485,3.516C18.219,1.248,15.206,0,12,0S5.781,1.248,3.515,3.516C1.248,5.782,0,8.795,0,12
		c0,3.205,1.248,6.219,3.515,8.486l1.414-1.414C3.04,17.184,2,14.671,2,12C2,9.329,3.04,6.818,4.929,4.93C6.818,3.04,9.329,2,12,2
		s5.182,1.04,7.071,2.93C20.96,6.818,22,9.329,22,12c0,2.671-1.04,5.183-2.929,7.071l1.414,1.414C22.752,18.219,24,15.206,24,12
		C24,8.795,22.752,5.782,20.485,3.516z"/> <path fill="#4ab9ad" d="M12,5c-3.86,0-7,3.14-7,7c0,0.891,0.17,1.766,0.504,2.6l1.856-0.746C7.122,13.258,7,12.635,7,12
		c0-2.757,2.243-5,5-5s5,2.243,5,5c0,0.636-0.121,1.259-0.36,1.854l1.856,0.746C18.831,13.767,19,12.892,19,12C19,8.14,15.86,5,12,5
		z"/> </g> </symbol><symbol viewBox="0 0 24 24" id="icon-time-2"><title>time-2</title> <g> <g> <path fill="#4ab9ad" d="M18,11h-4c-0.552,0-1-0.448-1-1V4h2v5h3V11z"/> </g> <path fill="#4ab9ad" d="M6.589,13C6.212,12.072,6,11.061,6,10c0-4.411,3.589-8,8-8s8,3.589,8,8c0,1.892-0.663,3.629-1.765,5h2.412
		C23.502,13.527,24,11.822,24,10c0-5.514-4.486-10-10-10S4,4.486,4,10c0,1.045,0.163,2.053,0.461,3H6.589z"/> <path fill="#4ab9ad" d="M20.895,17.553C20.725,17.214,20.379,17,20,17h-7.586l0.293-0.293c0.304-0.304,0.38-0.77,0.188-1.154l-1-2
		c-0.222-0.444-0.738-0.659-1.211-0.501l-4.757,1.585C5.781,14.266,5.423,14,5,14H1c-0.552,0-1,0.448-1,1v8c0,0.552,0.448,1,1,1h4
		c0.552,0,1-0.448,1-1h11c0.315,0,0.611-0.148,0.8-0.4l3-4C21.027,18.297,21.064,17.892,20.895,17.553z M2,22v-6h2v6H2z M16.5,21H6
		v-4.279l4.494-1.497l0.29,0.579l-1.49,1.49C9.102,17.484,9.01,17.74,9.009,18H9v1h9L16.5,21z"/> </g> </symbol><symbol viewBox="0 0 16 24" id="icon-time"><title>time</title> <g> <g> <g> <polygon fill="#767677" points="10.445,14.832 7,12.535 7,8 9,8 9,11.465 11.555,13.168 			"/> </g> </g> <path fill="#767677" d="M13.537,6.239L11.754,0H4.246L2.463,6.239C0.948,7.696,0,9.737,0,12s0.948,4.304,2.463,5.761L4.246,24
		h7.509l1.783-6.239C15.052,16.304,16,14.263,16,12S15.052,7.696,13.537,6.239z M5.754,2h4.491l0.738,2.583C10.061,4.21,9.055,4,8,4
		S5.939,4.21,5.016,4.583L5.754,2z M10.246,22H5.754l-0.738-2.583C5.939,19.79,6.945,20,8,20s2.061-0.21,2.984-0.583L10.246,22z
		 M7.999,17.998c-3.313,0-6-2.686-6-6c0-3.313,2.687-6,6-6s6,2.687,6,6C13.999,15.311,11.312,17.998,7.999,17.998z"/> </g> </symbol></svg>